<?xml version="1.0" standalone="no"?>
<!DOCTYPE svg PUBLIC "-//W3C//DTD SVG 20010904//EN"
 "http://www.w3.org/TR/2001/REC-SVG-20010904/DTD/svg10.dtd">
<svg version="1.0" xmlns="http://www.w3.org/2000/svg"
 width="2500.000000pt" height="2500.000000pt" viewBox="0 0 2500.000000 2500.000000"
 preserveAspectRatio="xMidYMid meet">
<metadata>
Created by potrace 1.14, written by Peter Selinger 2001-2017
</metadata>
<g transform="translate(0.000000,2500.000000) scale(0.100000,-0.100000)"
fill="#000000" stroke="none">
<path d="M11965 20683 c-22 -2 -43 -9 -46 -15 -4 -6 -71 -13 -163 -16 -86 -3
-156 -9 -156 -13 0 -5 -36 -9 -80 -9 -47 0 -80 -4 -80 -10 0 -6 -33 -10 -80
-10 -64 0 -80 -3 -80 -15 0 -11 -11 -15 -40 -15 -23 0 -40 -5 -40 -11 0 -8
-24 -9 -80 -4 -70 6 -80 5 -80 -9 0 -12 -10 -16 -44 -16 -25 0 -48 -5 -51 -11
-5 -6 -31 -8 -76 -3 -58 6 -69 4 -69 -9 0 -11 -18 -17 -80 -22 -44 -4 -80 -11
-80 -16 0 -5 -22 -9 -49 -9 -32 0 -55 -6 -66 -16 -8 -9 -24 -14 -35 -11 -12 3
-17 0 -14 -8 4 -10 -17 -15 -82 -20 -72 -6 -91 -12 -108 -30 -18 -19 -28 -22
-74 -17 -48 4 -52 3 -52 -17 0 -17 -6 -21 -35 -21 -20 0 -52 -7 -72 -15 -20
-9 -44 -13 -54 -10 -12 4 -27 -4 -45 -24 -23 -26 -35 -31 -71 -31 -33 0 -43
-4 -43 -16 0 -14 -9 -16 -51 -12 -47 5 -54 3 -77 -23 -13 -16 -29 -26 -33 -23
-5 3 -23 -3 -40 -12 -25 -12 -33 -13 -39 -3 -6 9 -14 5 -32 -13 -14 -16 -35
-25 -54 -26 -17 0 -52 -15 -78 -32 -34 -23 -54 -30 -71 -26 -19 5 -31 0 -51
-24 -23 -26 -34 -30 -76 -30 -40 0 -53 -5 -73 -26 -13 -14 -30 -24 -38 -22 -8
2 -29 -12 -46 -31 -25 -27 -34 -32 -41 -21 -14 22 -89 -15 -83 -41 5 -17 0
-19 -41 -19 -38 0 -52 -5 -71 -26 -13 -14 -30 -24 -38 -22 -8 2 -29 -13 -47
-32 -30 -32 -33 -33 -40 -15 -6 18 -8 18 -33 -9 -15 -16 -33 -26 -41 -23 -10
4 -12 0 -9 -14 5 -16 0 -19 -33 -19 -22 0 -58 -9 -81 -20 -34 -15 -43 -24 -43
-45 0 -22 -4 -25 -38 -25 -26 0 -41 -6 -50 -20 -7 -11 -16 -20 -22 -20 -14 0
-84 -49 -93 -66 -5 -9 -26 -14 -62 -14 -46 0 -55 -3 -55 -18 0 -11 -13 -23
-35 -31 -20 -7 -50 -27 -68 -45 -17 -19 -48 -42 -67 -53 -75 -41 -108 -64
-114 -78 -3 -8 -15 -15 -27 -15 -11 0 -34 -14 -49 -30 -15 -17 -34 -28 -42
-25 -7 3 -20 0 -28 -5 -12 -8 -12 -12 -2 -18 17 -11 -10 -43 -58 -69 -71 -39
-108 -64 -114 -79 -3 -8 -14 -14 -24 -12 -13 2 -41 -20 -83 -63 -35 -37 -80
-75 -99 -86 -81 -45 -107 -64 -118 -88 -6 -13 -24 -31 -40 -39 -16 -8 -32 -22
-35 -31 -4 -8 -13 -15 -22 -15 -8 0 -15 -5 -15 -11 0 -17 -58 -70 -72 -67 -20
5 -728 -708 -728 -732 0 -11 -7 -23 -15 -27 -9 -3 -23 -19 -31 -35 -8 -16 -26
-34 -39 -40 -24 -11 -43 -37 -88 -118 -11 -19 -48 -63 -83 -97 -35 -33 -64
-69 -64 -79 0 -9 -9 -26 -20 -38 -35 -37 -72 -73 -93 -92 -20 -17 -20 -18 -2
-24 18 -6 17 -9 -9 -35 -23 -22 -30 -25 -37 -14 -8 12 -11 12 -19 -1 -5 -8 -8
-21 -5 -28 3 -8 -10 -28 -27 -44 -18 -17 -31 -38 -30 -46 2 -9 -3 -21 -12 -28
-19 -13 -53 -63 -81 -118 -11 -21 -30 -45 -42 -53 -13 -9 -23 -26 -23 -39 0
-12 -6 -27 -14 -31 -26 -15 -67 -85 -68 -117 -1 -17 -9 -40 -19 -51 -10 -11
-33 -36 -50 -55 -18 -19 -34 -46 -35 -60 -2 -14 -15 -35 -31 -47 -15 -13 -27
-30 -25 -39 2 -8 -9 -27 -25 -41 -26 -25 -26 -27 -8 -33 18 -7 17 -10 -16 -41
-42 -39 -73 -94 -65 -115 8 -20 -25 -86 -40 -80 -8 3 -11 -1 -7 -10 3 -8 -6
-25 -21 -39 -21 -19 -26 -33 -26 -71 0 -41 -2 -46 -19 -41 -14 3 -18 1 -14
-11 4 -8 -1 -20 -10 -27 -35 -25 -67 -86 -67 -125 0 -22 -4 -40 -9 -40 -9 0
-40 -80 -45 -114 -1 -10 -13 -27 -26 -38 -12 -10 -24 -31 -26 -46 -1 -15 -14
-36 -28 -47 -30 -24 -33 -35 -9 -35 15 0 15 -2 -1 -19 -10 -10 -18 -34 -18
-52 -1 -23 -10 -42 -27 -58 -24 -23 -25 -24 -6 -31 19 -7 18 -9 -12 -38 -18
-16 -33 -40 -33 -52 0 -12 -7 -28 -15 -36 -9 -10 -13 -24 -9 -40 4 -14 1 -31
-7 -40 -7 -9 -12 -36 -10 -65 2 -43 0 -49 -19 -49 -11 0 -20 -7 -20 -16 0 -8
-6 -22 -14 -29 -9 -9 -12 -29 -8 -64 4 -42 2 -51 -12 -51 -12 0 -16 -10 -16
-40 0 -33 -3 -40 -20 -40 -17 0 -20 -7 -20 -40 0 -22 -4 -40 -10 -40 -5 0 -10
-20 -10 -45 0 -26 -7 -60 -16 -78 -12 -21 -13 -32 -5 -35 6 -2 11 -21 11 -43
0 -34 -3 -39 -24 -39 -23 0 -24 -4 -31 -80 -4 -44 -11 -80 -16 -80 -5 0 -9
-18 -9 -40 0 -22 -4 -40 -10 -40 -5 0 -10 -18 -10 -41 0 -30 -4 -40 -14 -36
-10 4 -14 -20 -19 -116 -4 -70 -11 -123 -17 -125 -6 -2 -10 -37 -10 -83 0 -70
-2 -79 -19 -79 -15 0 -19 -11 -25 -61 -3 -34 -6 -88 -6 -120 0 -37 -4 -59 -11
-59 -8 0 -9 -24 -4 -80 5 -56 4 -80 -4 -80 -7 0 -11 -22 -11 -59 0 -98 -12
-181 -25 -181 -20 0 -28 -271 -23 -801 3 -378 6 -472 17 -478 10 -6 15 -50 19
-165 3 -113 8 -156 17 -156 9 0 14 -40 19 -137 11 -233 16 -263 38 -263 19 0
20 -5 13 -80 -5 -56 -4 -80 4 -80 6 0 11 -17 11 -40 0 -22 4 -40 9 -40 5 0 12
-36 16 -80 6 -69 10 -80 26 -80 15 0 19 -7 19 -40 0 -22 5 -40 10 -40 6 0 10
-18 10 -40 0 -22 5 -40 10 -40 6 0 10 -18 10 -40 0 -29 -4 -40 -15 -40 -20 0
-19 -14 1 -35 9 -8 14 -24 11 -34 -3 -14 0 -17 14 -14 16 5 19 -1 19 -36 0
-22 5 -41 10 -41 6 0 10 -18 10 -40 0 -29 4 -40 15 -40 12 0 15 -16 15 -80 0
-73 2 -80 20 -80 17 0 20 -7 20 -50 0 -31 8 -66 20 -90 11 -22 20 -55 20 -75
0 -30 8 -44 40 -75 l40 -38 0 -86 c0 -73 3 -87 19 -95 29 -16 63 -81 59 -112
-3 -19 0 -25 9 -22 9 4 13 -6 13 -35 0 -22 3 -42 8 -44 12 -5 42 -78 32 -78
-15 0 -12 -16 5 -34 8 -8 15 -26 15 -39 0 -15 9 -31 23 -40 12 -8 31 -32 42
-53 10 -22 26 -47 34 -56 12 -16 12 -18 -2 -18 -24 0 -21 -11 9 -35 14 -11 27
-32 28 -47 2 -14 16 -38 32 -52 l29 -25 -25 -1 -25 -1 32 -27 c17 -15 41 -46
53 -69 12 -23 28 -47 36 -54 8 -6 14 -28 14 -48 0 -25 6 -40 20 -49 11 -7 20
-17 20 -24 0 -6 7 -20 17 -30 15 -17 15 -18 0 -18 -24 0 -21 -11 9 -35 14 -11
26 -31 28 -45 1 -14 17 -41 35 -60 17 -19 40 -44 50 -55 10 -11 18 -34 19 -51
1 -39 42 -101 85 -128 l32 -20 -25 -6 -24 -6 29 -21 c17 -12 39 -38 50 -60 30
-56 65 -107 81 -116 8 -4 14 -19 14 -31 0 -13 10 -30 23 -39 12 -8 31 -32 42
-53 29 -56 62 -105 82 -119 9 -7 14 -19 10 -28 -4 -10 3 -23 20 -35 14 -10 37
-40 52 -67 15 -27 40 -56 56 -65 15 -8 31 -22 34 -30 14 -34 53 -89 66 -94 8
-3 15 -15 15 -26 0 -13 25 -46 63 -82 34 -33 73 -81 87 -106 14 -25 38 -53 53
-61 16 -9 34 -27 40 -41 7 -14 25 -31 40 -38 16 -8 31 -21 35 -30 13 -35 54
-86 81 -103 16 -10 32 -27 36 -38 3 -12 15 -26 26 -31 10 -6 19 -17 19 -25 0
-8 5 -15 11 -15 14 0 69 -55 69 -69 0 -6 5 -11 11 -11 12 0 27 -12 82 -67 55
-55 67 -70 67 -82 0 -6 5 -11 11 -11 14 0 69 -55 69 -69 0 -6 7 -11 15 -11 8
0 19 -9 25 -19 5 -11 19 -23 31 -26 11 -4 28 -20 38 -36 17 -27 68 -68 103
-81 9 -4 22 -19 30 -34 7 -15 35 -40 63 -55 28 -15 58 -41 68 -58 11 -17 23
-31 28 -31 6 0 41 -31 79 -70 40 -40 78 -70 89 -70 11 0 24 -6 28 -14 9 -17
60 -52 117 -81 21 -11 45 -30 53 -43 9 -12 24 -22 35 -22 20 0 78 -51 78 -69
0 -5 14 -11 32 -13 23 -2 36 -11 48 -33 9 -16 37 -41 62 -55 26 -14 58 -38 72
-53 14 -16 46 -37 71 -48 24 -11 47 -24 50 -29 3 -5 26 -19 52 -32 25 -13 52
-33 61 -45 17 -27 32 -30 32 -6 0 14 2 14 18 2 9 -8 34 -24 55 -34 22 -11 48
-32 58 -47 12 -16 26 -25 34 -22 15 6 75 -46 75 -65 0 -10 52 -16 88 -12 8 1
23 -7 35 -18 95 -90 117 -104 117 -76 0 21 19 19 44 -5 96 -90 116 -103 116
-75 0 21 19 19 44 -5 96 -90 116 -103 116 -75 0 8 5 15 11 15 14 0 69 -55 69
-69 0 -6 13 -11 29 -11 16 0 53 -11 83 -25 29 -14 70 -25 92 -25 33 0 38 -3
33 -20 -5 -18 0 -20 39 -20 37 0 44 -3 44 -20 0 -17 7 -20 44 -20 26 0 48 -6
56 -15 7 -8 21 -15 31 -15 10 0 21 -5 24 -10 3 -6 24 -10 46 -10 28 0 39 -4
39 -15 0 -11 12 -15 44 -15 26 0 48 -6 56 -15 10 -12 9 -15 -6 -16 -11 -1 7
-5 39 -10 32 -5 68 -15 80 -24 12 -8 41 -15 65 -15 39 0 44 -2 39 -20 -5 -18
0 -20 38 -20 23 0 62 -9 86 -20 24 -11 61 -20 82 -20 26 0 37 -4 37 -15 0 -11
11 -15 35 -15 22 0 38 -6 41 -15 4 -10 20 -15 51 -15 24 0 58 -7 76 -16 21
-12 32 -13 35 -5 2 6 21 11 43 11 35 0 39 -2 39 -26 l0 -26 91 8 c88 7 92 6
109 -16 15 -20 26 -23 69 -21 45 2 51 0 51 -17 0 -18 9 -21 80 -26 44 -3 116
-9 160 -12 59 -4 80 -10 80 -20 0 -11 18 -14 80 -14 61 0 80 -3 80 -14 0 -16
82 -26 221 -26 68 0 99 -4 99 -12 0 -8 32 -9 120 -5 99 6 120 4 120 -7 0 -12
40 -14 240 -13 132 1 240 -1 240 -5 0 -5 18 -8 40 -8 22 0 40 -4 40 -10 0 -5
18 -10 40 -10 33 0 40 3 40 20 0 17 7 20 40 20 33 0 40 -3 40 -20 0 -17 7 -20
40 -20 29 0 40 4 40 15 0 10 11 15 33 16 17 1 98 3 179 5 81 1 182 8 224 14
43 5 106 7 141 4 44 -5 63 -3 63 5 0 7 37 11 120 11 l120 0 0 27 0 26 120 -6
c77 -5 120 -3 120 3 0 6 18 10 40 10 22 0 40 5 40 10 0 6 26 10 59 10 102 0
181 12 181 26 0 10 13 14 40 14 22 0 40 5 40 10 0 6 18 10 40 10 22 0 40 4 40
9 0 5 36 12 80 16 58 5 80 11 80 21 0 10 13 14 45 14 36 0 51 5 69 25 21 22
31 25 96 25 54 0 78 4 92 17 17 15 18 15 18 0 0 -24 8 -21 42 15 24 26 31 29
38 17 8 -12 16 -10 52 9 24 12 58 22 76 22 17 0 32 4 32 8 0 13 68 42 84 36 8
-3 32 4 55 15 22 12 54 21 71 21 23 0 30 4 30 20 0 17 7 20 40 20 33 0 40 3
40 20 0 18 6 20 60 19 37 -1 66 3 76 12 8 7 23 14 32 15 33 5 112 37 112 45 0
5 11 9 25 9 16 0 39 13 61 35 28 29 42 35 76 35 35 0 47 6 76 38 32 34 35 35
42 17 6 -18 8 -18 33 8 14 16 32 27 40 25 8 -2 29 13 47 32 30 32 33 33 40 15
6 -18 8 -18 32 8 14 15 33 27 43 27 9 0 31 15 47 33 29 30 31 31 38 12 6 -18
8 -18 33 8 14 16 32 27 40 25 8 -2 29 12 46 31 25 27 34 32 41 21 12 -19 67 5
106 48 18 18 43 35 57 36 14 2 37 16 51 32 20 23 25 25 26 12 0 -25 11 -22 35
8 11 14 31 26 45 28 23 2 42 17 116 86 12 11 30 20 41 20 12 0 27 10 36 23 8
12 32 31 53 42 56 29 105 62 119 82 7 9 19 14 28 10 11 -4 23 3 36 21 10 15
36 36 58 47 56 30 107 65 116 81 4 8 17 14 28 14 12 0 46 26 82 64 34 35 78
72 97 83 81 45 107 64 118 88 6 13 24 31 40 39 16 8 32 22 36 31 3 9 14 15 24
13 12 -2 44 23 90 70 39 39 76 72 81 72 6 0 17 13 26 30 8 16 27 35 41 43 13
7 33 26 42 41 9 15 40 40 67 55 28 15 56 40 63 55 8 15 21 30 30 34 53 20 114
81 134 134 4 9 19 22 35 30 15 7 33 24 40 38 6 14 25 32 40 41 15 8 33 26 40
40 7 13 24 31 40 40 15 8 39 37 54 65 15 27 41 57 58 67 17 11 31 23 31 28 0
6 32 41 70 79 41 40 70 77 70 89 0 11 9 25 19 31 11 5 23 19 26 31 4 11 20 28
36 38 29 18 59 58 94 125 11 21 30 45 43 53 12 9 22 24 22 35 0 21 51 78 69
78 6 0 11 7 11 15 0 7 6 18 14 22 16 9 51 60 81 116 11 22 32 48 47 58 17 12
25 25 21 35 -3 8 4 25 16 37 68 72 85 94 87 117 2 14 15 35 31 47 15 13 27 30
25 39 -2 9 6 25 17 37 69 73 85 94 87 117 2 14 14 34 28 45 30 24 33 35 9 35
-15 0 -15 1 0 18 10 10 17 24 17 30 0 7 9 17 20 24 14 9 20 24 20 52 0 35 2
38 24 34 18 -4 23 -1 19 9 -3 7 7 25 23 40 27 25 27 27 9 33 -18 7 -17 10 15
40 19 18 34 39 32 47 -2 8 9 26 25 40 26 25 26 27 8 33 -18 7 -17 10 15 40 19
18 34 39 32 47 -2 8 9 26 25 40 26 25 26 27 8 33 -18 7 -17 10 15 40 19 18 34
39 32 47 -2 8 9 26 25 40 26 25 26 27 8 33 -18 7 -17 10 15 40 26 24 34 39 32
60 -2 17 7 42 22 64 14 21 28 46 31 57 4 10 11 19 16 19 5 0 9 7 9 16 0 8 6
22 14 29 9 9 12 29 8 64 -4 42 -2 51 12 51 12 0 16 10 16 41 0 34 3 41 18 37
14 -4 17 2 17 31 0 28 5 38 23 46 19 8 22 17 22 62 0 32 6 57 15 67 8 8 15 25
15 37 0 12 12 33 27 47 26 24 26 26 8 32 -17 6 -16 10 18 44 30 30 37 44 37
76 0 22 5 40 10 40 6 0 10 18 10 40 0 22 5 40 10 40 6 0 10 18 10 40 0 27 4
40 14 40 10 0 16 22 21 78 4 42 13 92 21 111 8 18 14 55 14 82 0 41 3 49 19
49 16 0 20 11 26 77 4 43 16 99 26 126 10 26 19 63 19 82 0 23 5 35 14 35 10
0 16 21 20 80 3 44 9 116 12 160 5 63 9 80 21 80 13 0 15 10 10 60 -4 33 -4
87 0 120 5 51 9 60 26 60 19 0 20 4 14 120 -6 97 -4 120 7 120 16 0 28 201 30
515 2 338 4 365 21 365 11 0 15 11 15 40 0 33 -3 40 -20 40 -19 0 -20 6 -17
240 3 195 1 240 -10 240 -10 0 -12 24 -6 120 4 88 3 120 -5 120 -9 0 -12 36
-12 120 0 100 -2 120 -15 120 -11 0 -15 11 -15 40 0 23 -5 40 -11 40 -8 0 -9
24 -4 80 6 68 5 80 -8 80 -11 0 -16 18 -21 80 -3 44 -9 116 -12 160 -5 67 -9
80 -23 80 -15 0 -20 22 -36 160 -18 157 -19 160 -42 160 -22 0 -24 3 -22 52 2
43 -1 54 -19 66 -25 17 -29 42 -7 42 11 0 15 11 15 40 0 29 -4 40 -15 40 -11
0 -15 11 -15 40 0 34 -3 40 -20 40 -19 0 -21 5 -19 52 2 43 -1 54 -18 65 -19
13 -21 21 -16 69 5 50 4 54 -16 54 -18 0 -21 6 -21 40 0 30 -4 40 -16 40 -14
0 -16 9 -12 51 4 35 1 55 -8 64 -8 7 -14 23 -14 35 0 12 -15 36 -32 52 -31 29
-32 31 -13 38 19 7 18 8 -6 31 -22 20 -26 34 -28 84 -1 51 -5 63 -27 80 -14
11 -27 33 -28 49 -2 15 -9 32 -16 36 -6 4 -10 16 -8 27 2 13 -10 32 -32 53
-32 30 -33 33 -15 40 19 7 18 8 -6 31 -17 15 -26 35 -27 55 -1 32 -42 102 -68
117 -19 11 -18 37 1 37 28 0 17 17 -74 115 -15 16 -18 30 -14 73 5 44 3 52
-11 52 -19 0 -76 52 -76 69 0 6 7 11 15 11 28 0 15 20 -75 116 -11 12 -20 29
-20 39 0 9 -15 31 -32 47 -31 29 -32 31 -13 38 18 6 18 8 -9 33 -17 16 -26 33
-23 41 4 9 -4 23 -21 35 -15 10 -36 36 -47 58 -10 21 -26 46 -34 56 -12 15
-12 17 2 17 24 0 22 5 -23 51 -22 23 -40 47 -40 55 0 16 -44 83 -66 98 -9 7
-14 20 -12 29 2 9 -9 27 -25 40 -16 12 -29 33 -31 47 -2 23 -17 42 -86 116
-11 12 -20 29 -20 39 0 9 -29 45 -64 79 -35 35 -73 78 -83 97 -42 75 -65 107
-78 113 -8 3 -15 12 -15 21 0 8 -5 15 -11 15 -18 0 -69 58 -69 79 0 11 -9 25
-20 31 -11 6 -26 22 -33 36 -7 14 -26 33 -41 42 -15 9 -40 40 -55 67 -15 28
-40 56 -55 63 -15 8 -30 21 -34 30 -13 35 -54 86 -81 103 -16 10 -32 27 -36
38 -3 12 -20 28 -36 36 -16 9 -35 28 -43 44 -9 16 -22 31 -31 34 -8 4 -15 13
-15 22 0 8 -5 15 -11 15 -12 0 -27 12 -82 67 -55 55 -67 70 -67 82 0 6 -5 11
-11 11 -14 0 -69 55 -69 69 0 6 -7 11 -15 11 -8 0 -19 9 -25 19 -5 11 -19 23
-31 26 -11 4 -28 20 -38 36 -17 27 -68 68 -103 81 -9 4 -22 19 -30 34 -7 15
-35 40 -63 55 -27 15 -58 41 -68 58 -11 17 -23 31 -28 31 -6 0 -41 32 -79 70
-42 42 -77 70 -90 70 -11 0 -23 7 -26 15 -5 13 -60 52 -94 66 -8 3 -22 19 -30
34 -9 16 -38 41 -65 56 -28 15 -56 37 -64 48 -7 12 -24 21 -37 21 -13 0 -27 6
-31 14 -9 16 -60 51 -116 81 -22 11 -48 32 -58 47 -12 17 -25 25 -35 21 -8 -3
-25 4 -37 16 -72 68 -94 85 -115 87 -13 1 -38 18 -57 37 -18 18 -48 40 -66 47
-19 7 -44 22 -56 33 -13 11 -36 19 -57 19 -20 0 -39 6 -44 13 -8 16 -60 51
-116 80 -21 11 -45 30 -53 43 -18 26 -33 29 -33 5 -1 -14 -6 -12 -26 11 -14
16 -38 30 -52 32 -15 1 -36 14 -47 28 -17 21 -30 26 -64 26 -38 0 -48 5 -87
47 -39 41 -44 44 -44 23 0 -21 -2 -22 -17 -9 -10 8 -35 24 -57 34 -21 11 -45
30 -53 43 -18 26 -33 29 -33 5 0 -14 -7 -10 -31 15 -33 35 -49 41 -49 17 0 -8
-5 -15 -11 -15 -14 0 -69 55 -69 69 0 6 -7 11 -16 11 -8 0 -22 7 -30 15 -9 8
-20 15 -25 15 -5 0 -9 -7 -9 -15 0 -22 -20 -18 -46 10 -18 20 -33 25 -70 25
-40 0 -46 3 -42 18 4 15 0 17 -24 14 -17 -3 -36 2 -46 11 -9 8 -33 23 -52 32
-19 10 -37 22 -40 26 -4 5 -28 9 -55 10 -37 1 -54 7 -66 22 -14 17 -27 20 -66
18 -45 -2 -52 1 -81 34 -32 34 -52 44 -52 25 0 -5 -19 0 -42 10 -24 11 -60 20
-80 20 -27 0 -38 4 -38 15 0 12 -17 15 -94 15 -85 0 -95 2 -108 22 -12 18 -23
21 -66 19 -50 -2 -52 -1 -52 24 0 25 -1 25 -80 25 -47 0 -80 4 -80 10 0 6 -18
10 -40 10 -22 0 -40 5 -40 10 0 6 -18 10 -40 10 -28 0 -40 4 -40 14 0 10 -22
16 -80 21 -44 4 -80 11 -80 16 0 5 -18 9 -40 9 -22 0 -40 5 -40 10 0 6 -33 10
-80 10 -61 0 -80 3 -80 14 0 14 -79 26 -181 26 -37 0 -59 4 -59 11 0 8 -24 9
-80 4 -70 -6 -80 -5 -80 9 0 14 -14 15 -120 9 -88 -4 -120 -3 -120 5 0 7 -16
12 -39 12 -23 0 -41 5 -43 13 -4 9 -125 12 -559 13 -305 1 -572 0 -594 -3z
m8595 -6668 c0 -28 -15 -34 -24 -9 -10 25 -7 34 9 34 9 0 15 -9 15 -25z
m-12540 -8360 c10 -12 10 -15 -4 -15 -9 0 -16 7 -16 15 0 8 2 15 4 15 2 0 9
-7 16 -15z"/>
</g>
</svg>
